<?xml version="1.0" encoding="UTF-8" standalone="no"?>
<svg
   xmlns:dc="http://purl.org/dc/elements/1.1/"
   xmlns:cc="http://creativecommons.org/ns#"
   xmlns:rdf="http://www.w3.org/1999/02/22-rdf-syntax-ns#"
   xmlns:svg="http://www.w3.org/2000/svg"
   xmlns="http://www.w3.org/2000/svg"
   xmlns:sodipodi="http://sodipodi.sourceforge.net/DTD/sodipodi-0.dtd"
   xmlns:inkscape="http://www.inkscape.org/namespaces/inkscape"
   version="1.1"
   x="0px"
   y="0px"
   width="100px"
   height="100px"
   viewBox="0 0 100 100"
   enable-background="new 0 0 100 100"
   xml:space="preserve"
   id="svg2"
   inkscape:version="0.48.4 r9939"
   sodipodi:docname="icon_5619.svg"><metadata
     id="metadata24"><rdf:RDF><cc:Work
         rdf:about=""><dc:format>image/svg+xml</dc:format><dc:type
           rdf:resource="http://purl.org/dc/dcmitype/StillImage" /></cc:Work></rdf:RDF></metadata><defs
     id="defs22" /><sodipodi:namedview
     pagecolor="#ffffff"
     bordercolor="#666666"
     borderopacity="1"
     objecttolerance="10"
     gridtolerance="10"
     guidetolerance="10"
     inkscape:pageopacity="0"
     inkscape:pageshadow="2"
     inkscape:window-width="1366"
     inkscape:window-height="744"
     id="namedview20"
     showgrid="false"
     inkscape:zoom="2.36"
     inkscape:cx="50"
     inkscape:cy="50"
     inkscape:window-x="0"
     inkscape:window-y="24"
     inkscape:window-maximized="1"
     inkscape:current-layer="svg2" /><g
     id="Captions" /><g
     id="Layer_7"
     display="none" /><g
     id="Your_Icon"
     transform="matrix(1.3895644,0,0,1.4242985,-19.477524,-21.212075)"
     style="fill:#e6e6e6"><path
       d="m 75.186,68.916 c 0,0 -6.082,0.422 -12.528,0.781 -2.398,-2.686 -2.07,-9.439 -1.767,-12.604 2.509,-2.766 4.729,-6.279 6.044,-10.264 0.136,0.223 0.29,0.414 0.494,0.523 2.248,1.238 1.689,-3.824 1.797,-5.959 0.111,-2.137 1.688,-4.947 0,-4.947 -0.456,0 -0.79,0.068 -1.047,0.164 -0.311,-12.205 -3.23,-21.717 -17.954,-21.717 -15.678,0 -17.782,9.639 -17.973,21.963 -0.247,-0.213 -0.685,-0.41 -1.479,-0.41 -1.688,0 -0.114,2.811 0,4.947 0.112,2.135 -0.448,7.197 1.799,5.959 0.33,-0.184 0.557,-0.543 0.711,-1.004 1.202,4.068 3.329,7.666 5.796,10.512 0.312,3.045 0.721,10.061 -1.726,12.82 -6.478,-0.354 -12.541,-0.766 -12.541,-0.766 -5.961,0 -10.795,4.832 -10.795,10.793 v 5.396 h 71.965 v -5.396 c 0,-5.959 -4.836,-10.791 -10.796,-10.791 z"
       id="path7"
       inkscape:connector-curvature="0"
       style="fill:#e6e6e6" /></g><g
     id="Layer_6"
     display="none"><polygon
       display="inline"
       points="52.996,40.028 52.996,24.036 47.006,24.036 47.006,40.028 14.064,40.028 26.045,75.964    73.957,75.964 85.936,40.028  "
       id="polygon10" /></g><g
     id="Layer_5"
     display="none"><path
       display="inline"
       d="M20.015,14.018v71.965h59.971V14.018H20.015z M35.008,75.988h-5.995v-6h5.995V75.988z M35.008,63.994   h-5.995v-5.998h5.995V63.994z M35.008,51.998h-5.995v-5.996h5.995V51.998z M47.001,75.988h-5.994v-6h5.994V75.988z M47.001,63.994   h-5.994v-5.998h5.994V63.994z M47.001,51.998h-5.994v-5.996h5.994V51.998z M58.997,75.988h-5.995v-6h5.995V75.988z M58.997,63.994   h-5.995v-5.998h5.995V63.994z M58.997,51.998h-5.995v-5.996h5.995V51.998z M70.991,75.988h-5.999v-6h5.999V75.988z M70.991,63.994   h-5.999v-5.998h5.999V63.994z M70.991,51.998h-5.999v-5.996h5.999V51.998z M73.99,36.008H26.016V24.014H73.99V36.008z"
       id="path13" /></g><g
     id="Layer_4"
     display="none"><polygon
       display="inline"
       points="50,17.02 14.018,47.074 20.1,47.074 20.1,82.984 44.002,82.984 44.002,64.994 55.996,64.994    55.996,82.984 80.07,82.984 80.07,47.074 85.982,47.074  "
       id="polygon16" /><polygon
       display="inline"
       points="77.986,17.016 65.992,17.016 65.992,25.037 77.986,35.008  "
       id="polygon18" /></g></svg>